<svg width="974" height="218" viewBox="0 0 974 218" fill="none" xmlns="http://www.w3.org/2000/svg">
<path d="M104.585 10.0001H158.865V171H104.585V10.0001ZM54.445 171H0.165039V10.0001H54.445V171ZM108.265 111.66H50.765V67.0401H108.265V111.66Z" fill="#F8F7FC"/>
<path d="M252.869 173.3C237.535 173.3 224.119 170.463 212.619 164.79C201.272 159.117 192.455 151.373 186.169 141.56C179.882 131.593 176.739 120.4 176.739 107.98C176.739 95.2534 179.805 83.9834 185.939 74.1701C192.225 64.3568 200.735 56.6901 211.469 51.1701C222.355 45.6501 234.545 42.8901 248.039 42.8901C260.459 42.8901 271.882 45.3434 282.309 50.2501C292.889 55.1568 301.322 62.4401 307.609 72.1001C314.049 81.7601 317.269 93.7201 317.269 107.98C317.269 109.82 317.192 111.89 317.039 114.19C316.885 116.337 316.732 118.33 316.579 120.17H219.749V95.1001H288.979L269.429 101.77C269.429 96.8634 268.509 92.7234 266.669 89.3501C264.982 85.8234 262.605 83.1401 259.539 81.3001C256.472 79.3068 252.792 78.3101 248.499 78.3101C244.205 78.3101 240.449 79.3068 237.229 81.3001C234.162 83.1401 231.785 85.8234 230.099 89.3501C228.412 92.7234 227.569 96.8634 227.569 101.77V109.59C227.569 114.957 228.642 119.557 230.789 123.39C232.935 127.223 236.002 130.137 239.989 132.13C243.975 133.97 248.805 134.89 254.479 134.89C260.305 134.89 265.059 134.123 268.739 132.59C272.572 131.057 276.559 128.757 280.699 125.69L307.839 153.06C301.705 159.653 294.115 164.713 285.069 168.24C276.175 171.613 265.442 173.3 252.869 173.3Z" fill="#F8F7FC"/>
<path d="M406.433 171V148.69L402.753 142.71V100.39C402.753 94.2568 400.836 89.5801 397.003 86.3601C393.323 83.1401 387.266 81.5301 378.833 81.5301C373.16 81.5301 367.41 82.4501 361.583 84.2901C355.756 85.9768 350.773 88.3534 346.633 91.4201L330.073 57.1501C337.433 52.5501 346.25 49.0234 356.523 46.5701C366.796 44.1168 376.84 42.8901 386.653 42.8901C408.273 42.8901 424.986 47.7201 436.793 57.3801C448.753 67.0401 454.733 82.3734 454.733 103.38V171H406.433ZM370.783 173.3C360.51 173.3 351.923 171.537 345.023 168.01C338.123 164.483 332.91 159.807 329.383 153.98C325.856 148 324.093 141.407 324.093 134.2C324.093 126.073 326.163 119.173 330.303 113.5C334.443 107.827 340.73 103.533 349.163 100.62C357.75 97.7068 368.56 96.2501 381.593 96.2501H407.813V121.32H389.873C384.353 121.32 380.29 122.24 377.683 124.08C375.23 125.767 374.003 128.373 374.003 131.9C374.003 134.813 375.076 137.267 377.223 139.26C379.523 141.1 382.59 142.02 386.423 142.02C389.95 142.02 393.17 141.1 396.083 139.26C399.15 137.267 401.373 134.2 402.753 130.06L409.423 145.47C407.43 154.823 403.213 161.8 396.773 166.4C390.333 171 381.67 173.3 370.783 173.3Z" fill="#F8F7FC"/>
<path d="M477.198 171V0.340088H529.178V171H477.198Z" fill="#F8F7FC"/>
<path d="M629.109 173.3C611.782 173.3 598.289 169.16 588.629 160.88C578.969 152.447 574.139 139.567 574.139 122.24V16.9001H626.119V121.78C626.119 125.613 627.116 128.603 629.109 130.75C631.256 132.897 633.862 133.97 636.929 133.97C641.376 133.97 645.286 132.82 648.659 130.52L661.079 166.63C657.092 168.93 652.262 170.617 646.589 171.69C641.069 172.763 635.242 173.3 629.109 173.3ZM556.889 90.0401V52.0901H651.879V90.0401H556.889Z" fill="#F8F7FC"/>
<path d="M761.58 42.8901C771.24 42.8901 779.98 44.8834 787.8 48.8701C795.62 52.7034 801.753 58.7601 806.2 67.0401C810.8 75.3201 813.1 86.0534 813.1 99.2401V171H761.12V108.21C761.12 100.39 759.74 94.8701 756.98 91.6501C754.22 88.2768 750.463 86.5901 745.71 86.5901C742.183 86.5901 738.887 87.4334 735.82 89.1201C732.907 90.6534 730.53 93.2601 728.69 96.9401C727.003 100.62 726.16 105.603 726.16 111.89V171H674.18V0.340088H726.16V81.9901L713.74 71.4101C718.647 61.9034 725.24 54.7734 733.52 50.0201C741.953 45.2668 751.307 42.8901 761.58 42.8901Z" fill="#F8F7FC"/>
<path d="M861.028 217.92C854.128 217.92 847.075 216.847 839.868 214.7C832.815 212.707 827.141 210.023 822.848 206.65L840.098 171C842.705 172.993 845.618 174.603 848.838 175.83C852.211 177.057 855.431 177.67 858.498 177.67C863.098 177.67 866.625 176.673 869.078 174.68C871.531 172.84 873.525 170.003 875.058 166.17L880.348 152.83L884.028 147.77L924.278 45.1901H973.498L921.748 173.53C917.148 185.03 911.781 194 905.648 200.44C899.668 206.88 892.921 211.403 885.408 214.01C878.048 216.617 869.921 217.92 861.028 217.92ZM873.218 176.75L818.478 45.1901H871.838L909.558 143.17L873.218 176.75Z" fill="#F8F7FC"/>
</svg>
