<svg width="546" height="547" viewBox="0 0 546 547" fill="none" xmlns="http://www.w3.org/2000/svg">
<rect y="0.998535" width="546" height="546" rx="42.6562" fill="#F4B7E7"/>
<path fill-rule="evenodd" clip-rule="evenodd" d="M0 152.956V216.169C6.72131 216.651 13.8723 217.618 21.09 218.594C23.5662 218.928 26.0503 219.264 28.5275 219.582C44.4978 221.63 60.2032 222.93 72.3447 218.729C78.3235 216.66 85.561 211.086 93.7036 203.585C99.7166 198.045 106.143 191.532 112.839 184.746L112.84 184.746L112.848 184.737L112.857 184.727C115.194 182.36 117.563 179.959 119.959 177.554C129.211 168.269 138.846 158.949 148.431 151.408C158.004 143.877 167.611 138.051 176.815 135.847C195.093 131.469 210.877 135.75 224.705 140.869C227.562 141.927 230.311 143.01 232.98 144.062L232.981 144.063C236.82 145.576 240.491 147.022 244.071 148.23C250.104 150.266 255.662 151.539 260.887 151.198C266.032 150.863 271.71 148.114 277.909 143.939C283.429 140.22 289.244 135.453 295.344 130.453C296.076 129.853 296.812 129.25 297.551 128.645C304.439 123.013 311.662 117.226 319.116 112.527C326.569 107.829 334.31 104.18 342.246 102.866C350.199 101.55 358.558 102.719 366.954 105.025C375.124 107.269 383.403 110.612 391.442 113.858L392.105 114.125C400.379 117.465 408.377 120.662 415.846 122.498C423.316 124.335 430.129 124.777 436.063 122.724C442.051 120.652 448.835 115.544 456.277 108.767C461.775 103.761 467.558 97.9153 473.581 91.8273L473.583 91.8259L473.583 91.8252C475.694 89.6917 477.834 87.5285 480.002 85.3614C488.336 77.0284 497.054 68.6588 505.954 61.8301C514.848 55.0066 523.99 49.6694 533.179 47.4685C537.866 46.3459 542.106 45.8699 546 45.8925V43.6562C546 20.0979 526.902 1 503.344 1H468.248C462.202 6.25264 456.252 12.0324 450.455 17.8289C448.308 19.9754 446.18 22.1257 444.077 24.2519L444.076 24.2524C438.041 30.353 432.202 36.2549 426.663 41.2993C419.209 48.0861 412.164 53.4494 405.756 55.6668C399.294 57.9027 392.038 57.3703 384.407 55.4938C376.775 53.6171 368.642 50.3615 360.396 47.0332L359.778 46.7839C351.704 43.5244 343.519 40.2198 335.463 38.0072C327.205 35.7388 319.163 34.6423 311.612 35.8924C304.043 37.1452 296.561 40.6457 289.222 45.2723C281.884 49.898 274.747 55.6117 267.856 61.2467C267.118 61.8501 266.383 62.4528 265.651 63.0532L265.647 63.0563C259.561 68.0449 253.668 72.8757 248.065 76.6507C241.802 80.8699 235.753 83.8759 230.055 84.2471C224.438 84.6132 218.583 83.2405 212.471 81.1787C208.865 79.9622 205.092 78.4761 201.198 76.9424C198.534 75.8927 195.812 74.8208 193.049 73.7977C179.339 68.7217 164.014 64.6072 146.32 68.8449C137.538 70.9482 128.204 76.5611 118.707 84.0326C109.223 91.4938 99.6607 100.74 90.4145 110.019C88.0324 112.41 85.6701 114.804 83.3359 117.169L83.3322 117.173L83.3318 117.174C76.6245 123.971 70.1485 130.534 64.0976 136.109C55.966 143.6 48.455 149.451 42.0376 151.672C30.099 155.803 15.0282 154.797 0 152.956ZM465.217 1H42.6562C19.0979 1 0 20.0979 0 43.6562L0 150.941C15.1246 152.801 29.8594 153.769 41.3836 149.782C47.3624 147.713 54.5999 142.14 62.7424 134.638C68.7555 129.098 75.1818 122.585 81.8784 115.799L81.8826 115.795C84.2234 113.422 86.5971 111.017 88.9978 108.608C98.25 99.3223 107.885 90.002 117.47 82.4607C127.043 74.9298 136.65 69.1043 145.854 66.8999C164.132 62.5224 179.916 66.8027 193.744 71.9222C196.601 72.98 199.35 74.0637 202.018 75.1154L202.019 75.1156C205.858 76.6287 209.529 78.0755 213.11 79.2836C219.143 81.3187 224.701 82.5918 229.925 82.2514C235.07 81.9161 240.749 79.1676 246.947 74.992C252.468 71.2732 258.283 66.5064 264.383 61.506C265.115 60.9064 265.85 60.3034 266.59 59.6985C273.477 54.0659 280.701 48.2795 288.155 43.5804C295.608 38.8821 303.349 35.233 311.285 33.9193C319.238 32.6028 327.597 33.7724 335.993 36.0786C344.162 38.3225 352.442 41.6654 360.481 44.9109L361.144 45.1785C369.418 48.5182 377.416 51.7152 384.885 53.5517C392.354 55.3885 399.168 55.8301 405.102 53.7767C411.09 51.7048 417.874 46.5969 425.316 39.8205C430.814 34.8141 436.599 28.9671 442.622 22.8784L442.628 22.8724C444.737 20.7408 446.875 18.5797 449.04 16.4146C454.297 11.159 459.706 5.88893 465.217 1ZM0 331.629V218.173C6.5575 218.651 13.5752 219.598 20.7532 220.567H20.7533L20.7612 220.569L20.7657 220.569C23.2531 220.905 25.7597 221.243 28.2731 221.566C44.1804 223.606 60.348 224.996 72.9987 220.619C79.4161 218.398 86.9272 212.547 95.0587 205.056C101.11 199.481 107.586 192.918 114.293 186.12L114.293 186.12L114.293 186.12L114.295 186.119C116.63 183.752 118.993 181.357 121.376 178.966C130.622 169.687 140.184 160.441 149.668 152.979C159.165 145.508 168.499 139.895 177.281 137.792C194.975 133.554 210.3 137.669 224.01 142.745C226.773 143.768 229.495 144.839 232.16 145.889C236.053 147.423 239.826 148.909 243.432 150.126C249.544 152.187 255.399 153.56 261.017 153.194C266.714 152.823 272.763 149.817 279.026 145.598C284.63 141.823 290.522 136.992 296.608 132.003L296.608 132.003C297.342 131.402 298.078 130.798 298.817 130.194C305.708 124.559 312.845 118.845 320.183 114.219C327.522 109.592 335.005 106.092 342.573 104.839C350.125 103.589 358.166 104.686 366.425 106.954C374.48 109.167 382.665 112.471 390.739 115.731L391.357 115.98C399.603 119.308 407.736 122.564 415.368 124.441C422.999 126.317 430.255 126.849 436.717 124.614C443.125 122.396 450.17 117.033 457.624 110.246C463.163 105.202 469.002 99.3002 475.037 93.1997L475.037 93.1993L475.038 93.1987C477.141 91.0725 479.269 88.9222 481.416 86.7757C489.741 78.451 498.382 70.1607 507.172 63.4169C515.968 56.668 524.849 51.5202 533.645 49.4135C538.185 48.3263 542.268 47.8698 546 47.8925V161.447C542.453 161.523 538.621 162.009 534.431 163.013C525.241 165.214 516.1 170.551 507.206 177.374C498.305 184.203 489.587 192.573 481.253 200.906C479.086 203.073 476.945 205.236 474.835 207.37L474.834 207.371L474.832 207.373C468.809 213.46 463.026 219.306 457.529 224.312C450.087 231.088 443.303 236.196 437.315 238.268C431.38 240.321 424.567 239.88 417.097 238.043C409.629 236.206 401.631 233.009 393.357 229.67L392.694 229.402C384.655 226.156 376.375 222.814 368.206 220.57C359.81 218.263 351.451 217.094 343.498 218.41C335.562 219.724 327.821 223.373 320.368 228.071C312.913 232.771 305.69 238.557 298.803 244.19C298.079 244.782 297.359 245.372 296.643 245.959L296.596 245.997L296.596 245.997C290.495 250.998 284.68 255.764 279.16 259.483C272.962 263.659 267.283 266.407 262.138 266.742C256.913 267.083 251.355 265.81 245.323 263.775C241.742 262.567 238.07 261.12 234.231 259.606L234.23 259.606C231.562 258.554 228.813 257.471 225.956 256.413C212.129 251.294 196.345 247.013 178.067 251.391C168.862 253.595 159.255 259.421 149.683 266.952C140.097 274.493 130.463 283.813 121.21 293.099C118.813 295.505 116.442 297.907 114.104 300.276L114.1 300.281L114.091 300.29C107.394 307.076 100.968 313.589 94.9551 319.129C86.8125 326.631 79.575 332.204 73.5962 334.273C61.4547 338.474 45.7493 337.174 29.779 335.126C27.3018 334.809 24.8177 334.473 22.3415 334.138L22.341 334.138C14.6738 333.101 7.08165 332.075 0 331.629ZM546 163.447C542.61 163.523 538.934 163.991 534.897 164.958C526.1 167.064 517.22 172.212 508.423 178.961C499.633 185.705 490.993 193.995 482.667 202.32C480.52 204.467 478.393 206.617 476.29 208.743L476.289 208.744L476.288 208.745L476.286 208.746C470.252 214.846 464.414 220.747 458.875 225.79C451.422 232.577 444.377 237.941 437.969 240.158C431.507 242.394 424.25 241.861 416.62 239.985C408.988 238.108 400.854 234.853 392.608 231.524L391.991 231.275C383.917 228.015 375.731 224.711 367.676 222.498C359.418 220.23 351.376 219.133 343.824 220.383C336.256 221.636 328.773 225.137 321.434 229.763C314.096 234.389 306.959 240.103 300.069 245.738C299.33 246.342 298.593 246.946 297.86 247.547L297.859 247.548C291.774 252.536 285.881 257.367 280.277 261.142C274.014 265.361 267.966 268.367 262.268 268.738C256.65 269.104 250.795 267.732 244.684 265.67C241.078 264.453 237.305 262.967 233.412 261.434L233.411 261.433L233.408 261.432L233.404 261.431L233.401 261.429C230.739 260.381 228.021 259.311 225.262 258.289C211.552 253.213 196.227 249.098 178.532 253.336C169.75 255.439 160.416 261.052 150.92 268.524C141.436 275.985 131.873 285.231 122.627 294.51C120.247 296.899 117.887 299.29 115.555 301.654L115.545 301.664C108.837 308.462 102.361 315.025 96.3102 320.6C88.1787 328.091 80.6676 333.942 74.2502 336.163C61.5995 340.54 45.4319 339.15 29.5246 337.11C27.0071 336.787 24.4963 336.448 22.0048 336.112C14.3681 335.081 6.91273 334.074 0 333.632V449.036C1.95077 447.464 3.96041 445.906 6.0087 444.391C16.8028 436.408 28.8313 429.498 39.0335 428.27C49.6345 426.993 62.7671 428.768 76.1279 430.575L76.1312 430.575L76.1364 430.576C78.6098 430.91 81.091 431.246 83.5654 431.563C99.5358 433.611 115.241 434.911 127.383 430.71C133.361 428.641 140.599 423.067 148.742 415.566C154.753 410.027 161.179 403.515 167.874 396.73L167.876 396.728L167.877 396.727L167.882 396.723L167.918 396.686C170.247 394.326 172.609 391.932 174.997 389.535C184.249 380.25 193.884 370.93 203.469 363.389C213.042 355.858 222.649 350.032 231.853 347.828C250.131 343.45 265.915 347.731 279.743 352.85C282.599 353.908 285.348 354.991 288.016 356.043L288.018 356.043L288.021 356.044C291.859 357.557 295.529 359.004 299.109 360.212C305.142 362.247 310.7 363.52 315.924 363.179C321.069 362.844 326.748 360.095 332.946 355.92C338.466 352.202 344.28 347.436 350.379 342.437L350.38 342.436L350.382 342.434L350.382 342.434L350.435 342.39C351.149 341.805 351.867 341.217 352.589 340.626C359.477 334.994 366.7 329.207 374.154 324.508C381.607 319.81 389.348 316.161 397.284 314.847C405.237 313.531 413.596 314.7 421.992 317.007C430.161 319.25 438.441 322.593 446.479 325.838L446.48 325.839L447.143 326.106C455.417 329.446 463.415 332.643 470.884 334.48C478.354 336.316 485.167 336.758 491.101 334.705C497.089 332.633 503.873 327.525 511.315 320.748C516.813 315.742 522.598 309.895 528.621 303.806C530.732 301.673 532.872 299.51 535.039 297.342C538.627 293.755 542.286 290.161 546 286.686V163.447ZM546 289.433C542.779 292.482 539.594 295.617 536.454 298.757C534.307 300.903 532.179 303.054 530.076 305.18L530.073 305.182L530.07 305.186L530.067 305.19L530.06 305.196L530.06 305.196L530.059 305.197L530.059 305.197C524.029 311.292 518.196 317.187 512.662 322.227C505.208 329.014 498.163 334.377 491.755 336.595C485.293 338.831 478.037 338.298 470.406 336.422C462.774 334.545 454.641 331.289 446.395 327.961L445.777 327.712C437.703 324.452 429.518 321.148 421.462 318.935C413.204 316.667 405.162 315.57 397.611 316.82C390.043 318.073 382.56 321.574 375.221 326.2C367.883 330.826 360.746 336.54 353.855 342.175L353.56 342.416L352.904 342.953C352.505 343.28 352.106 343.607 351.708 343.934L351.702 343.939L351.646 343.984L351.645 343.985C345.56 348.974 339.667 353.804 334.064 357.579C327.801 361.798 321.752 364.804 316.055 365.175C310.437 365.541 304.582 364.168 298.47 362.107C294.864 360.89 291.091 359.404 287.197 357.87C284.533 356.821 281.811 355.749 279.048 354.726C265.338 349.65 250.013 345.535 232.319 349.773C223.537 351.876 214.203 357.489 204.706 364.96C195.222 372.422 185.66 381.668 176.414 390.947C174.03 393.339 171.667 395.734 169.331 398.101C162.624 404.899 156.148 411.462 150.097 417.037C141.965 424.528 134.454 430.379 128.037 432.6C115.386 436.977 99.2183 435.587 83.3111 433.547C80.8047 433.225 78.305 432.888 75.8244 432.553L75.8177 432.552L75.8128 432.552L75.7913 432.549C62.4148 430.743 49.5949 429.012 39.2726 430.255C29.6263 431.417 17.9595 438.04 7.19801 445.999C4.73044 447.824 2.31894 449.713 0 451.613V504.344C0 527.902 19.0979 547 42.6562 547H219.058C228.047 540.132 237.043 534.871 245.684 532.802C263.962 528.424 279.747 532.704 293.574 537.824C296.422 538.878 299.164 539.959 301.824 541.007L301.84 541.014L301.849 541.017C305.688 542.53 309.359 543.977 312.941 545.185C315.044 545.895 317.089 546.512 319.083 547H335.227C338.85 545.769 342.701 543.64 346.778 540.894C352.298 537.175 358.113 532.408 364.214 527.408C364.945 526.808 365.681 526.205 366.42 525.6C373.308 519.968 380.531 514.181 387.985 509.482C395.438 504.784 403.179 501.135 411.115 499.821C419.068 498.505 427.427 499.674 435.824 501.98C443.992 504.224 452.272 507.567 460.311 510.812L460.311 510.812L460.311 510.813L460.312 510.813L460.975 511.08C469.249 514.42 477.247 517.617 484.715 519.453C492.185 521.29 498.998 521.732 504.932 519.678C510.92 517.607 517.704 512.499 525.146 505.722C530.644 500.716 536.429 494.869 542.453 488.78L542.457 488.775L543.597 487.623C544.063 487.153 544.53 486.681 544.998 486.208C545.331 485.872 545.665 485.535 546 485.198V354.296C542.133 358.162 538.366 361.845 534.727 365.158C527.274 371.945 520.229 377.308 513.821 379.525C507.359 381.761 500.103 381.229 492.472 379.353C484.84 377.476 476.706 374.22 468.46 370.892L467.843 370.643C459.769 367.383 451.584 364.078 443.528 361.866C435.27 359.597 427.228 358.501 419.677 359.751C412.108 361.004 404.626 364.504 397.286 369.131C389.949 373.757 382.811 379.47 375.921 385.105C375.205 385.691 374.492 386.275 373.781 386.858L373.712 386.915C367.626 391.904 361.733 396.734 356.13 400.509C349.867 404.729 343.818 407.735 338.12 408.106C332.502 408.472 326.647 407.099 320.536 405.037C316.93 403.821 313.157 402.335 309.263 400.801C306.598 399.751 303.877 398.679 301.114 397.656C287.404 392.58 272.079 388.466 254.385 392.704C245.602 394.807 236.269 400.42 226.772 407.891C217.288 415.352 207.726 424.599 198.479 433.878C196.096 436.27 193.732 438.665 191.397 441.032C184.69 447.829 178.214 454.393 172.162 459.967C164.031 467.459 156.52 473.31 150.102 475.531C137.452 479.908 121.284 478.517 105.377 476.478C102.862 476.155 100.354 475.816 97.8652 475.48L97.8571 475.479C84.4806 473.673 71.6607 471.943 61.3384 473.186C51.6921 474.348 40.0253 480.97 29.2638 488.93C18.5417 496.86 8.87829 505.996 3.26781 511.978L1.80903 510.61C7.48846 504.554 17.2409 495.335 28.0745 487.322C38.8686 479.338 50.897 472.429 61.0992 471.2C71.7003 469.923 84.8329 471.699 98.1937 473.505L98.197 473.506L98.2022 473.507C100.676 473.841 103.157 474.176 105.631 474.494C121.602 476.542 137.307 477.842 149.448 473.64C155.427 471.572 162.665 465.998 170.807 458.496C176.82 452.957 183.245 446.446 189.941 439.66L189.943 439.658L189.943 439.658C192.285 437.284 194.661 434.877 197.063 432.466C206.315 423.181 215.95 413.861 225.535 406.319C235.107 398.788 244.715 392.963 253.919 390.759C272.197 386.381 287.981 390.661 301.808 395.781C304.657 396.835 307.398 397.916 310.059 398.964L310.067 398.967L310.078 398.972L310.083 398.974L310.083 398.974C313.923 400.487 317.594 401.934 321.175 403.142C327.208 405.177 332.765 406.45 337.99 406.11C343.135 405.775 348.814 403.026 355.012 398.851C360.531 395.133 366.346 390.367 372.445 385.368L372.447 385.366L372.448 385.365C373.18 384.765 373.915 384.162 374.655 383.557C381.542 377.925 388.766 372.138 396.22 367.439C403.673 362.741 411.414 359.092 419.35 357.778C427.303 356.461 435.662 357.631 444.058 359.937C452.227 362.181 460.507 365.524 468.546 368.77L469.209 369.037C477.483 372.377 485.481 375.574 492.949 377.41C500.419 379.247 507.233 379.689 513.167 377.635C519.155 375.563 525.939 370.456 533.381 363.679C537.438 359.985 541.65 355.834 546 351.465V289.433ZM546 488.039C545.332 488.714 544.665 489.387 544.002 490.058L543.92 490.141L543.907 490.154C537.872 496.254 532.033 502.156 526.493 507.201C519.04 513.988 511.994 519.351 505.586 521.569C499.124 523.804 491.868 523.272 484.237 521.396C476.605 519.519 468.472 516.263 460.226 512.935L459.609 512.686C451.535 509.426 443.349 506.122 435.294 503.909C427.035 501.641 418.994 500.544 411.442 501.794C403.874 503.047 396.391 506.547 389.052 511.174C381.714 515.8 374.577 521.513 367.687 527.148C367.191 527.554 366.696 527.959 366.202 528.364L365.477 528.958C359.392 533.947 353.499 538.777 347.895 542.552C345.35 544.267 342.84 545.781 340.375 547H503.344C526.902 547 546 527.902 546 504.344V488.039ZM312.064 547C308.531 545.799 304.84 544.345 301.033 542.846L301.029 542.844C298.364 541.794 295.643 540.722 292.88 539.699C279.17 534.623 263.845 530.509 246.15 534.747C238.559 536.565 230.557 541.004 222.393 547H312.064Z" fill="#E29CCF"/>
</svg>
