<svg width="546" height="546" viewBox="0 0 546 546" fill="none" xmlns="http://www.w3.org/2000/svg">
<path fill-rule="evenodd" clip-rule="evenodd" d="M0 91.076V154.243C6.42856 154.745 13.2292 155.665 20.09 156.592C22.5662 156.927 25.0503 157.263 27.5275 157.58C43.4978 159.628 59.2032 160.928 71.3447 156.727C77.3235 154.658 84.561 149.085 92.7036 141.583C98.7159 136.044 105.141 129.532 111.837 122.747L111.839 122.745L111.84 122.744L111.844 122.74C114.184 120.368 116.558 117.962 118.959 115.553C128.211 106.268 137.846 96.9474 147.431 89.4061C157.004 81.8751 166.611 76.0496 175.815 73.8453C194.093 69.4677 209.877 73.748 223.705 78.8675C226.561 79.9251 229.31 81.0085 231.978 82.0599L231.98 82.0607L231.98 82.0609C235.819 83.5741 239.49 85.0209 243.071 86.229C249.104 88.2641 254.662 89.5371 259.887 89.1967C265.032 88.8615 270.71 86.1129 276.909 81.9373C282.428 78.2187 288.244 73.4521 294.344 68.452L294.344 68.4517L294.344 68.4514C295.076 67.8517 295.812 67.2488 296.551 66.6438C303.439 61.0112 310.662 55.2248 318.116 50.5257C325.569 45.8275 333.31 42.1783 341.246 40.8646C349.199 39.5481 357.558 40.7177 365.954 43.024C374.124 45.2679 382.403 48.6107 390.442 51.8563L391.105 52.1239C399.379 55.4635 407.377 58.6605 414.846 60.497C422.316 62.3339 429.129 62.7754 435.063 60.722C441.051 58.6501 447.835 53.5422 455.277 46.7658C460.775 41.7597 466.559 35.9132 472.582 29.8248L472.583 29.8238C474.694 27.6902 476.834 25.527 479.002 23.3599C487.257 15.1051 495.89 6.81441 504.704 0.0212726C504.252 0.00712625 503.799 0 503.344 0H265.934C265.504 0.352017 265.075 0.703563 264.648 1.05433L264.647 1.05488C258.561 6.04348 252.668 10.8743 247.065 14.6493C240.802 18.8685 234.753 21.8745 229.055 22.2457C223.438 22.6117 217.583 21.239 211.471 19.1773C207.865 17.9608 204.092 16.4746 200.198 14.9409C197.534 13.8912 194.812 12.8193 192.049 11.7963C178.339 6.72025 163.014 2.6057 145.32 6.84348C136.538 8.94678 127.204 14.5596 117.707 22.0311C108.223 29.4923 98.6607 38.7386 89.4145 48.0178C87.0316 50.4091 84.6686 52.8039 82.3336 55.1703L82.3322 55.1717C75.6248 61.9693 69.1486 68.5324 63.0976 74.1073C54.966 81.5988 47.455 87.4498 41.0376 89.6704C29.3637 93.7097 14.6952 92.8376 0 91.076ZM262.779 0H42.6562C19.0979 0 0 19.0979 0 42.6562V89.0613C14.7729 90.8399 29.1136 91.68 40.3836 87.7803C46.3624 85.7116 53.5999 80.1381 61.7424 72.6363C67.7555 67.0965 74.1818 60.5839 80.8784 53.7974L80.8815 53.7943C83.2226 51.4217 85.5967 49.0157 87.9978 46.6061C97.25 37.3209 106.885 28.0006 116.47 20.4593C126.043 12.9283 135.65 7.10283 144.854 4.89848C163.132 0.520928 178.916 4.80124 192.744 9.9207C195.601 10.9785 198.35 12.0622 201.018 13.1139L201.019 13.1142C204.858 14.6273 208.529 16.0741 212.11 17.2822C218.143 19.3173 223.701 20.5903 228.925 20.2499C234.07 19.9147 239.749 17.1661 245.947 12.9905C251.285 9.39479 256.899 4.81915 262.779 0ZM0 269.694V156.248C6.2686 156.745 12.9382 157.646 19.7523 158.566L19.7533 158.566L19.7612 158.567L19.7657 158.568C22.2531 158.903 24.7597 159.242 27.2731 159.564C43.1804 161.604 59.348 162.995 71.9987 158.617C78.4161 156.397 85.9272 150.546 94.0587 143.054C100.11 137.479 106.586 130.916 113.293 124.119L113.295 124.117L113.296 124.116C115.631 121.75 117.993 119.355 120.376 116.965C129.622 107.685 139.184 98.4391 148.668 90.9779C158.165 83.5064 167.499 77.8936 176.281 75.7903C193.975 71.5525 209.3 75.6671 223.01 80.7431C225.773 81.7661 228.495 82.838 231.16 83.8877C235.053 85.4214 238.826 86.9076 242.432 88.124C248.544 90.1858 254.399 91.5585 260.017 91.1925C265.714 90.8213 271.763 87.8153 278.026 83.5961C283.629 79.8212 289.522 74.9907 295.607 70.0023L295.608 70.002L295.608 70.0017C296.342 69.4002 297.078 68.7965 297.817 68.192C304.708 62.557 311.845 56.8434 319.183 52.2176C326.522 47.591 334.005 44.0906 341.573 42.8377C349.125 41.5877 357.166 42.6841 365.425 44.9525C373.48 47.1651 381.665 50.4697 389.739 53.7293L390.357 53.9785C398.603 57.3068 406.736 60.5624 414.368 62.4392C421.999 64.3156 429.255 64.848 435.717 62.6121C442.125 60.3948 449.17 55.0315 456.624 48.2446C462.164 43.2002 468.002 37.2983 474.038 31.1976L474.038 31.1972C476.141 29.0711 478.269 26.9208 480.416 24.7742C488.741 16.4495 497.382 8.15919 506.172 1.41543C506.697 1.01267 507.222 0.61561 507.748 0.224559C529.237 2.42854 546 20.5848 546 42.6562V99.4346C542.175 99.4335 538.017 99.9129 533.431 101.011C524.241 103.212 515.1 108.549 506.206 115.373C497.305 122.202 488.587 130.571 480.253 138.904C478.086 141.071 475.945 143.235 473.835 145.368L473.834 145.369L473.832 145.371C467.809 151.459 462.026 157.305 456.529 162.31C449.087 169.086 442.303 174.194 436.315 176.266C430.38 178.32 423.567 177.878 416.097 176.041C408.629 174.205 400.631 171.008 392.357 167.668L391.694 167.401C383.655 164.155 375.375 160.812 367.206 158.568C358.81 156.262 350.451 155.092 342.498 156.409C334.562 157.723 326.821 161.372 319.368 166.07C311.913 170.769 304.69 176.556 297.803 182.188C297.079 182.78 296.359 183.37 295.643 183.957L295.596 183.996L295.596 183.996C289.495 188.996 283.68 193.763 278.16 197.482C271.962 201.657 266.283 204.406 261.138 204.741C255.913 205.081 250.355 203.808 244.323 201.773C240.742 200.565 237.071 199.119 233.233 197.606L233.231 197.605L233.23 197.604L233.227 197.604C230.56 196.552 227.812 195.469 224.956 194.412C211.129 189.292 195.345 185.012 177.067 189.39C167.862 191.594 158.255 197.419 148.683 204.95C139.097 212.492 129.463 221.812 120.21 231.097C117.808 233.508 115.433 235.915 113.091 238.288C106.394 245.075 99.9681 251.588 93.9551 257.127C85.8125 264.629 78.575 270.203 72.5962 272.271C60.4547 276.473 44.7493 275.173 28.779 273.125C26.3018 272.807 23.8177 272.471 21.3415 272.136L21.341 272.136L21.3388 272.136L21.338 272.136C14.0314 271.148 6.79322 270.169 0 269.694ZM546 101.435C542.336 101.433 538.334 101.893 533.897 102.956C525.1 105.063 516.22 110.211 507.423 116.96C498.633 123.703 489.993 131.994 481.667 140.319C479.52 142.465 477.393 144.615 475.29 146.742L475.289 146.742L475.288 146.743L475.286 146.745C469.252 152.844 463.414 158.745 457.875 163.789C450.422 170.576 443.377 175.939 436.969 178.156C430.507 180.392 423.25 179.86 415.62 177.983C407.988 176.107 399.854 172.851 391.608 169.523L390.991 169.274C382.917 166.014 374.731 162.709 366.676 160.497C358.418 158.228 350.376 157.132 342.824 158.382C335.256 159.635 327.773 163.135 320.434 167.762C313.096 172.388 305.959 178.101 299.069 183.736C298.682 184.052 298.297 184.368 297.911 184.684C297.56 184.972 297.21 185.259 296.86 185.546L296.859 185.546C290.774 190.535 284.881 195.365 279.277 199.14C273.014 203.36 266.966 206.366 261.268 206.737C255.65 207.103 249.795 205.73 243.684 203.668C240.078 202.452 236.305 200.966 232.411 199.432C229.746 198.382 227.025 197.31 224.262 196.287C210.552 191.211 195.227 187.097 177.532 191.335C168.75 193.438 159.416 199.051 149.92 206.522C140.436 213.983 130.873 223.23 121.627 232.509C119.244 234.901 116.88 237.296 114.545 239.663L114.545 239.663L114.544 239.663C107.837 246.461 101.361 253.024 95.3102 258.598C87.1787 266.09 79.6676 271.941 73.2502 274.161C60.5995 278.539 44.4319 277.148 28.5246 275.108C26.0071 274.786 23.4963 274.447 21.0048 274.11L21.0043 274.11C13.7346 273.129 6.6293 272.17 0 271.698V386.234C1.63524 384.934 3.30866 383.647 5.0087 382.39C15.8028 374.406 27.8313 367.497 38.0335 366.268C48.6345 364.991 61.7671 366.767 75.1279 368.573L75.1312 368.574L75.1364 368.574C77.6098 368.909 80.091 369.244 82.5654 369.562C98.5358 371.61 114.241 372.909 126.383 368.708C132.361 366.639 139.599 361.066 147.742 353.564C153.753 348.025 160.179 341.514 166.874 334.729L166.876 334.727L166.877 334.725L166.882 334.721L166.918 334.684C169.247 332.324 171.609 329.931 173.997 327.534C183.249 318.249 192.884 308.928 202.469 301.387C212.042 293.856 221.649 288.031 230.853 285.826C249.131 281.449 264.915 285.729 278.743 290.849C281.599 291.906 284.348 292.99 287.016 294.041L287.018 294.042L287.021 294.043C290.859 295.556 294.529 297.002 298.109 298.21C304.142 300.245 309.7 301.518 314.924 301.178C320.069 300.843 325.748 298.094 331.946 293.918C337.466 290.2 343.28 285.435 349.379 280.435L349.38 280.435L349.382 280.433L349.382 280.432L349.435 280.389L349.989 279.936C350.52 279.5 351.053 279.063 351.589 278.625C358.477 272.992 365.7 267.206 373.154 262.507C380.607 257.809 388.348 254.159 396.284 252.846C404.237 251.529 412.596 252.699 420.992 255.005C429.161 257.249 437.441 260.592 445.479 263.837L445.48 263.837L446.143 264.105C454.417 267.445 462.415 270.642 469.884 272.478C477.354 274.315 484.167 274.757 490.101 272.703C496.089 270.631 502.873 265.523 510.315 258.747C515.813 253.741 521.598 247.894 527.621 241.805C529.732 239.671 531.872 237.508 534.039 235.341C537.949 231.432 541.943 227.515 546 223.753V101.435ZM546 226.489C542.438 229.832 538.919 233.291 535.454 236.755C533.307 238.902 531.179 241.052 529.076 243.178L529.073 243.181L529.07 243.185L529.066 243.189L529.06 243.195L529.057 243.197C523.028 249.291 517.196 255.186 511.662 260.226C504.208 267.013 497.163 272.376 490.755 274.593C484.293 276.829 477.037 276.297 469.406 274.42C461.774 272.543 453.641 269.288 445.395 265.96L444.777 265.71C436.703 262.451 428.518 259.146 420.462 256.934C412.204 254.665 404.162 253.569 396.611 254.819C389.043 256.072 381.56 259.572 374.221 264.199C366.883 268.824 359.746 274.538 352.855 280.173C352.116 280.778 351.38 281.381 350.646 281.983L350.645 281.984C344.56 286.972 338.667 291.802 333.064 295.577C326.801 299.796 320.752 302.802 315.055 303.174C309.437 303.54 303.582 302.167 297.47 300.105C293.864 298.889 290.091 297.403 286.197 295.869C283.533 294.819 280.811 293.747 278.048 292.724C264.338 287.648 249.013 283.534 231.319 287.771C222.537 289.875 213.203 295.487 203.706 302.959C194.222 310.42 184.66 319.667 175.414 328.946C173.03 331.338 170.667 333.733 168.331 336.1C161.624 342.897 155.148 349.46 149.097 355.035C140.965 362.527 133.454 368.378 127.037 370.598C114.386 374.976 98.2183 373.585 82.3111 371.545C79.8047 371.224 77.305 370.886 74.8244 370.552L74.8177 370.551L74.8128 370.55L74.7913 370.547C61.4148 368.741 48.5949 367.01 38.2726 368.254C28.6263 369.416 16.9595 376.038 6.19801 383.998C4.08316 385.562 2.0095 387.173 0 388.798V503.344C0 526.902 19.0979 546 42.6562 546H152.916C155.665 543.831 158.557 541.317 161.573 538.538C167.583 533 174.007 526.491 180.701 519.707L180.708 519.7L180.709 519.699L180.731 519.677C183.066 517.31 185.434 514.911 187.828 512.508C197.08 503.223 206.715 493.902 216.301 486.361C225.873 478.83 235.48 473.005 244.684 470.8C262.962 466.423 278.747 470.703 292.574 475.822C295.431 476.88 298.181 477.964 300.849 479.016C304.688 480.529 308.359 481.976 311.941 483.184C317.973 485.219 323.531 486.492 328.756 486.152C333.901 485.816 339.58 483.068 345.778 478.892C351.298 475.174 357.113 470.407 363.214 465.406L364.065 464.709C364.515 464.34 364.967 463.97 365.42 463.599C372.308 457.966 379.531 452.18 386.985 447.481C394.438 442.782 402.179 439.133 410.115 437.82C418.068 436.503 426.427 437.673 434.824 439.979C442.992 442.223 451.272 445.565 459.311 448.811L459.311 448.811L459.311 448.811L459.312 448.811L459.975 449.079C468.249 452.418 476.247 455.615 483.715 457.452C491.185 459.289 497.998 459.73 503.932 457.677C509.92 455.605 516.704 450.497 524.146 443.721C529.644 438.714 535.429 432.867 541.453 426.779L541.457 426.774C542.957 425.258 544.471 423.727 546 422.191V291.293C541.782 295.525 537.679 299.559 533.727 303.156C526.274 309.943 519.229 315.307 512.821 317.524C506.359 319.76 499.103 319.227 491.472 317.351C483.84 315.474 475.706 312.219 467.46 308.89L466.843 308.641C458.769 305.382 450.584 302.077 442.528 299.864C434.27 297.596 426.228 296.5 418.677 297.75C411.108 299.002 403.626 302.503 396.286 307.129C388.949 311.755 381.811 317.469 374.921 323.104C374.205 323.689 373.492 324.274 372.781 324.856L372.712 324.914C366.626 329.902 360.733 334.733 355.13 338.508C348.867 342.727 342.818 345.733 337.12 346.104C331.502 346.47 325.647 345.098 319.536 343.036C315.93 341.819 312.157 340.333 308.263 338.8C305.598 337.75 302.877 336.678 300.114 335.655C286.404 330.579 271.079 326.464 253.385 330.702C244.602 332.805 235.269 338.418 225.772 345.89C216.288 353.351 206.726 362.597 197.479 371.876C195.096 374.268 192.732 376.664 190.397 379.03C183.69 385.828 177.214 392.391 171.162 397.966C163.031 405.457 155.52 411.309 149.102 413.529C136.452 417.906 120.284 416.516 104.377 414.476C101.862 414.154 99.354 413.815 96.8652 413.479L96.8571 413.478C83.4806 411.672 70.6607 409.941 60.3384 411.185C50.6921 412.346 39.0253 418.969 28.2638 426.929C17.5417 434.859 7.87829 443.995 2.26781 449.976L0.809031 448.608C6.48846 442.553 16.2409 433.333 27.0745 425.321C37.8686 417.337 49.897 410.428 60.0992 409.199C70.7003 407.922 83.8329 409.698 97.1937 411.504L97.197 411.504L97.2022 411.505C99.6756 411.84 102.157 412.175 104.631 412.492C120.602 414.54 136.307 415.84 148.448 411.639C154.427 409.57 161.665 403.997 169.807 396.495C175.82 390.956 182.245 384.444 188.941 377.659L188.943 377.657L188.943 377.656C191.285 375.282 193.661 372.875 196.063 370.465C205.315 361.18 214.95 351.859 224.535 344.318C234.107 336.787 243.715 330.962 252.919 328.757C271.197 324.38 286.981 328.66 300.808 333.779C303.657 334.834 306.398 335.914 309.059 336.963L309.067 336.966L309.078 336.97L309.083 336.972L309.083 336.973C312.923 338.486 316.594 339.933 320.175 341.141C326.208 343.176 331.765 344.449 336.99 344.109C342.135 343.773 347.814 341.025 354.012 336.849C359.531 333.131 365.346 328.365 371.445 323.366L371.447 323.364L371.448 323.363L372.605 322.415C372.954 322.129 373.304 321.843 373.655 321.556C380.542 315.923 387.766 310.137 395.22 305.438C402.673 300.739 410.414 297.09 418.35 295.776C426.303 294.46 434.662 295.63 443.058 297.936C451.227 300.18 459.507 303.523 467.546 306.768L468.209 307.036C476.483 310.375 484.481 313.572 491.949 315.409C499.419 317.246 506.233 317.687 512.167 315.634C518.155 313.562 524.939 308.454 532.381 301.678C536.748 297.701 541.295 293.195 546 288.458V226.489ZM546 425.029C544.968 426.069 543.941 427.107 542.92 428.139L542.907 428.152C536.872 434.253 531.033 440.155 525.493 445.2C518.04 451.986 510.994 457.35 504.586 459.567C498.124 461.803 490.868 461.271 483.237 459.394C475.605 457.517 467.472 454.262 459.226 450.933L458.609 450.684C450.535 447.425 442.349 444.12 434.294 441.907C426.035 439.639 417.994 438.543 410.442 439.793C402.874 441.046 395.391 444.546 388.052 449.173C380.714 453.798 373.577 459.512 366.687 465.147L366.107 465.622L365.531 466.093L364.477 466.957L364.477 466.957L364.476 466.957C358.391 471.946 352.499 476.776 346.895 480.551C340.632 484.77 334.583 487.776 328.886 488.147C323.268 488.513 317.413 487.141 311.301 485.079C307.695 483.863 303.922 482.376 300.029 480.843C297.364 479.793 294.643 478.721 291.88 477.698C278.17 472.622 262.845 468.507 245.15 472.745C236.368 474.849 227.034 480.461 217.537 487.933C208.054 495.394 198.491 504.64 189.245 513.92C186.88 516.293 184.534 518.67 182.216 521.019L182.173 521.063L182.163 521.073C175.455 527.871 168.979 534.434 162.928 540.009C160.597 542.156 158.317 544.169 156.099 546H264.069C264.139 545.982 264.209 545.965 264.279 545.947C264.346 545.931 264.413 545.914 264.48 545.898L264.608 545.867C276.217 543.087 286.82 543.799 296.554 546H376.342C378.566 544.22 380.832 542.363 383.138 540.473L383.145 540.467C383.874 539.869 384.607 539.268 385.345 538.665C392.232 533.033 399.455 527.246 406.91 522.547C414.362 517.849 422.104 514.2 430.04 512.886C437.992 511.57 446.352 512.739 454.748 515.046C462.917 517.289 471.197 520.632 479.236 523.878L479.899 524.145C488.173 527.485 496.171 530.682 503.639 532.519C511.109 534.355 517.922 534.797 523.856 532.744C529.438 530.812 535.711 526.243 542.564 520.144C544.776 514.988 546 509.309 546 503.344V425.029ZM503.344 546H379.531C381.134 544.701 382.754 543.374 384.387 542.035L384.4 542.024L384.401 542.023C385.135 541.422 385.872 540.818 386.611 540.214C393.501 534.579 400.638 528.865 407.976 524.239C415.315 519.613 422.798 516.112 430.366 514.859C437.918 513.609 445.959 514.706 454.218 516.974C462.273 519.187 470.459 522.491 478.533 525.751L479.15 526C487.396 529.328 495.529 532.584 503.162 534.461C510.792 536.337 518.049 536.87 524.51 534.634C529.407 532.939 534.676 529.408 540.214 524.809C532.819 537.483 519.076 546 503.344 546Z" fill="#E29CB1"/>
</svg>
