<svg width="170" height="51" viewBox="0 0 170 51" fill="none" xmlns="http://www.w3.org/2000/svg">
<rect x="0.5" y="1.43481" width="169" height="48.9933" rx="4.5" fill="white"/>
<path d="M114.987 23.8604V27.0375H112.999V29.121H114.987V36.2004C114.987 38.6177 116.079 39.5846 118.826 39.5846C119.309 39.5846 119.769 39.5271 120.171 39.458V37.3975C119.826 37.4321 119.608 37.4551 119.228 37.4551C117.999 37.4551 117.458 36.8795 117.458 35.5672V29.121H120.171V27.0375H117.458V23.8604H114.987Z" fill="#282224"/>
<path d="M127.168 39.7573C130.823 39.7573 133.064 37.3054 133.064 33.242C133.064 29.2016 130.812 26.7382 127.168 26.7382C123.514 26.7382 121.261 29.2016 121.261 33.242C121.261 37.3054 123.502 39.7573 127.168 39.7573ZM127.168 37.5587C125.019 37.5587 123.812 35.9817 123.812 33.242C123.812 30.5254 125.019 28.9368 127.168 28.9368C129.306 28.9368 130.524 30.5254 130.524 33.242C130.524 35.9701 129.306 37.5587 127.168 37.5587Z" fill="#282224"/>
<path d="M134.982 39.5156H137.453V32.1139C137.453 30.3527 138.775 29.167 140.648 29.167C141.085 29.167 141.82 29.2476 142.027 29.3167V26.8763C141.763 26.8073 141.292 26.7727 140.924 26.7727C139.292 26.7727 137.901 27.6706 137.545 28.9023H137.361V26.9799H134.982V39.5156Z" fill="#282224"/>
<path d="M148.163 28.8447C149.99 28.8447 151.185 30.1225 151.243 32.0909H144.922C145.059 30.134 146.335 28.8447 148.163 28.8447ZM151.231 36.1313C150.771 37.1097 149.749 37.6508 148.255 37.6508C146.278 37.6508 145.002 36.2579 144.922 34.0593V33.9212H153.76V33.0578C153.76 29.121 151.656 26.7382 148.174 26.7382C144.646 26.7382 142.405 29.2822 142.405 33.288C142.405 37.2939 144.6 39.7573 148.186 39.7573C151.047 39.7573 153.047 38.376 153.61 36.1313H151.231Z" fill="#282224"/>
<path d="M98.7829 34.8864C98.9735 37.9645 101.535 39.9332 105.347 39.9332C109.421 39.9332 111.97 37.8691 111.97 34.5762C111.97 31.9871 110.516 30.5554 106.99 29.7322L105.096 29.2669C102.857 28.7419 101.952 28.038 101.952 26.8091C101.952 25.2581 103.357 24.2439 105.466 24.2439C107.467 24.2439 108.849 25.2342 109.099 26.821H111.696C111.541 23.9218 108.992 21.8816 105.501 21.8816C101.749 21.8816 99.2475 23.9218 99.2475 26.988C99.2475 29.5174 100.665 31.0207 103.774 31.7485L105.99 32.2854C108.265 32.8223 109.266 33.6097 109.266 34.9221C109.266 36.4493 107.693 37.5589 105.549 37.5589C103.25 37.5589 101.654 36.5209 101.427 34.8864H98.7829Z" fill="#282224"/>
<path d="M73.1857 26.7727C71.4847 26.7727 70.0136 27.6245 69.255 29.0519H69.0711V26.9799H66.6921V43.6826H69.1631V37.6162H69.3585C70.0136 38.94 71.4272 39.7228 73.2087 39.7228C76.3693 39.7228 78.3806 37.2249 78.3806 33.242C78.3806 29.2591 76.3693 26.7727 73.1857 26.7727ZM72.4846 37.5011C70.4158 37.5011 69.1171 35.8665 69.1171 33.2535C69.1171 30.629 70.4158 28.9944 72.4961 28.9944C74.5878 28.9944 75.8406 30.5944 75.8406 33.242C75.8406 35.9011 74.5878 37.5011 72.4846 37.5011Z" fill="#282224"/>
<path d="M87.0271 26.7727C85.3261 26.7727 83.855 27.6245 83.0964 29.0519H82.9125V26.9799H80.5334V43.6826H83.0045V37.6162H83.1998C83.855 38.94 85.2686 39.7228 87.05 39.7228C90.2106 39.7228 92.2219 37.2249 92.2219 33.242C92.2219 29.2591 90.2106 26.7727 87.0271 26.7727ZM86.326 37.5011C84.2572 37.5011 82.9585 35.8665 82.9585 33.2535C82.9585 30.629 84.2572 28.9944 86.3375 28.9944C88.4292 28.9944 89.682 30.5944 89.682 33.242C89.682 35.9011 88.4292 37.5011 86.326 37.5011Z" fill="#282224"/>
<path d="M62.2586 39.5156H65.0937L58.8875 22.2992H56.0166L49.8103 39.5156H52.5501L54.1345 34.946H60.6862L62.2586 39.5156ZM57.315 25.4251H57.5175L60.0072 32.703H54.8135L57.315 25.4251Z" fill="#282224"/>
<path d="M51.4702 9.31343V17.6187H54.4642C56.9352 17.6187 58.3661 16.0935 58.3661 13.4402C58.3661 10.8271 56.9237 9.31343 54.4642 9.31343H51.4702ZM52.7574 10.4876H54.3205C56.0387 10.4876 57.0559 11.5811 57.0559 13.4574C57.0559 15.3625 56.056 16.4446 54.3205 16.4446H52.7574V10.4876Z" fill="#282224"/>
<path d="M62.7484 17.7396C64.5758 17.7396 65.6964 16.5137 65.6964 14.4819C65.6964 12.4617 64.5701 11.23 62.7484 11.23C60.921 11.23 59.7947 12.4617 59.7947 14.4819C59.7947 16.5137 60.9153 17.7396 62.7484 17.7396ZM62.7484 16.6403C61.6738 16.6403 61.0704 15.8518 61.0704 14.4819C61.0704 13.1236 61.6738 12.3294 62.7484 12.3294C63.8173 12.3294 64.4264 13.1236 64.4264 14.4819C64.4264 15.846 63.8173 16.6403 62.7484 16.6403Z" fill="#282224"/>
<path d="M75.2391 11.3509H74.0036L72.8888 16.1338H72.7911L71.5039 11.3509H70.3201L69.0328 16.1338H68.9409L67.8203 11.3509H66.5676L68.2915 17.6187H69.5615L70.8488 13.0028H70.9464L72.2394 17.6187H73.5209L75.2391 11.3509Z" fill="#282224"/>
<path d="M76.662 17.6187H77.8975V13.9524C77.8975 12.974 78.4779 12.3639 79.3916 12.3639C80.3053 12.3639 80.742 12.8646 80.742 13.8718V17.6187H81.9775V13.561C81.9775 12.0704 81.2075 11.23 79.8111 11.23C78.8686 11.23 78.248 11.6502 77.9435 12.3466H77.8515V11.3509H76.662V17.6187Z" fill="#282224"/>
<path d="M83.9233 17.6187H85.1588V8.90479H83.9233V17.6187Z" fill="#282224"/>
<path d="M89.8055 17.7396C91.6329 17.7396 92.7535 16.5137 92.7535 14.4819C92.7535 12.4617 91.6272 11.23 89.8055 11.23C87.9781 11.23 86.8518 12.4617 86.8518 14.4819C86.8518 16.5137 87.9723 17.7396 89.8055 17.7396ZM89.8055 16.6403C88.7309 16.6403 88.1275 15.8518 88.1275 14.4819C88.1275 13.1236 88.7309 12.3294 89.8055 12.3294C90.8744 12.3294 91.4835 13.1236 91.4835 14.4819C91.4835 15.846 90.8744 16.6403 89.8055 16.6403Z" fill="#282224"/>
<path d="M96.4347 16.6806C95.7624 16.6806 95.2739 16.3525 95.2739 15.7885C95.2739 15.2359 95.6647 14.9424 96.5267 14.8848L98.0552 14.787V15.3107C98.0552 16.0877 97.3657 16.6806 96.4347 16.6806ZM96.1187 17.7223C96.9404 17.7223 97.6243 17.3655 97.9978 16.7381H98.0955V17.6187H99.285V13.3366C99.285 12.0128 98.4 11.23 96.8312 11.23C95.4118 11.23 94.4004 11.9207 94.274 12.997H95.4693C95.6072 12.5538 96.0842 12.3006 96.7738 12.3006C97.6185 12.3006 98.0552 12.6747 98.0552 13.3366V13.8776L96.36 13.9754C94.8717 14.0675 94.0327 14.7179 94.0327 15.846C94.0327 16.9914 94.9119 17.7223 96.1187 17.7223Z" fill="#282224"/>
<path d="M103.478 17.7223C104.34 17.7223 105.069 17.3137 105.443 16.6288H105.541V17.6187H106.725V8.90479H105.489V12.3466H105.397C105.058 11.656 104.334 11.2473 103.478 11.2473C101.897 11.2473 100.88 12.502 100.88 14.4819C100.88 16.4676 101.886 17.7223 103.478 17.7223ZM103.828 12.3581C104.863 12.3581 105.512 13.1812 105.512 14.4877C105.512 15.8 104.868 16.6115 103.828 16.6115C102.782 16.6115 102.156 15.8115 102.156 14.4819C102.156 13.1639 102.788 12.3581 103.828 12.3581Z" fill="#282224"/>
<path d="M114.736 17.7396C116.564 17.7396 117.684 16.5137 117.684 14.4819C117.684 12.4617 116.558 11.23 114.736 11.23C112.909 11.23 111.783 12.4617 111.783 14.4819C111.783 16.5137 112.903 17.7396 114.736 17.7396ZM114.736 16.6403C113.662 16.6403 113.058 15.8518 113.058 14.4819C113.058 13.1236 113.662 12.3294 114.736 12.3294C115.805 12.3294 116.414 13.1236 116.414 14.4819C116.414 15.846 115.805 16.6403 114.736 16.6403Z" fill="#282224"/>
<path d="M119.32 17.6187H120.555V13.9524C120.555 12.974 121.136 12.3639 122.049 12.3639C122.963 12.3639 123.4 12.8646 123.4 13.8718V17.6187H124.635V13.561C124.635 12.0704 123.865 11.23 122.469 11.23C121.526 11.23 120.906 11.6502 120.601 12.3466H120.509V11.3509H119.32V17.6187Z" fill="#282224"/>
<path d="M130.326 9.79114V11.3797H129.331V12.4214H130.326V15.9611C130.326 17.1698 130.872 17.6533 132.245 17.6533C132.486 17.6533 132.716 17.6245 132.917 17.59V16.5597C132.745 16.577 132.636 16.5885 132.446 16.5885C131.831 16.5885 131.561 16.3007 131.561 15.6446V12.4214H132.917V11.3797H131.561V9.79114H130.326Z" fill="#282224"/>
<path d="M134.576 17.6187H135.811V13.9582C135.811 13.0085 136.374 12.3696 137.386 12.3696C138.259 12.3696 138.725 12.8761 138.725 13.8776V17.6187H139.96V13.5726C139.96 12.0819 139.139 11.2358 137.805 11.2358C136.863 11.2358 136.202 11.656 135.897 12.3581H135.8V8.90479H134.576V17.6187Z" fill="#282224"/>
<path d="M144.417 12.2833C145.331 12.2833 145.929 12.9222 145.957 13.9064H142.797C142.866 12.9279 143.504 12.2833 144.417 12.2833ZM145.952 15.9266C145.722 16.4158 145.21 16.6863 144.463 16.6863C143.475 16.6863 142.837 15.9899 142.797 14.8906V14.8215H147.216V14.3899C147.216 12.4214 146.164 11.23 144.423 11.23C142.659 11.23 141.538 12.502 141.538 14.505C141.538 16.5079 142.636 17.7396 144.429 17.7396C145.86 17.7396 146.86 17.0489 147.141 15.9266H145.952Z" fill="#282224"/>
<path d="M36.403 25.3858C36.433 23.0547 37.6829 20.8489 39.6659 19.6279C38.4149 17.8385 36.3197 16.704 34.1398 16.6357C31.8147 16.3913 29.5607 18.0292 28.3759 18.0292C27.1682 18.0292 25.344 16.66 23.3796 16.7005C20.8192 16.7833 18.4322 18.2413 17.1865 20.4834C14.5087 25.1268 16.5061 31.9511 19.0712 35.7045C20.3546 37.5424 21.8545 39.5955 23.817 39.5227C25.7375 39.4429 26.4548 38.2961 28.773 38.2961C31.0697 38.2961 31.7426 39.5227 33.745 39.4764C35.8058 39.4429 37.1042 37.6303 38.3426 35.7749C39.2647 34.4653 39.9742 33.0179 40.4449 31.4864C38.0231 30.4605 36.4058 28.0194 36.403 25.3858Z" fill="#282224"/>
<path d="M32.6208 14.1673C33.7444 12.8163 34.298 11.0798 34.1639 9.32666C32.4473 9.50724 30.8616 10.329 29.7228 11.6281C28.6092 12.8975 28.0297 14.6034 28.1392 16.2896C29.8565 16.3073 31.5447 15.5078 32.6208 14.1673Z" fill="#282224"/>
<rect x="0.5" y="1.43481" width="169" height="48.9933" rx="4.5" stroke="#A6A6A6"/>
</svg>
