<svg width="170" height="51" viewBox="0 0 170 51" fill="none" xmlns="http://www.w3.org/2000/svg">
<rect x="0.5" y="1.43481" width="169" height="48.9933" rx="4.5" fill="white"/>
<path d="M85.8009 28.1199C82.8391 28.1199 80.4251 30.3559 80.4251 33.4355C80.4251 36.4963 82.8391 38.751 85.8009 38.751C88.7639 38.751 91.1779 36.4963 91.1779 33.4355C91.1766 30.3559 88.7626 28.1199 85.8009 28.1199ZM85.8009 36.6588C84.1777 36.6588 82.7786 35.3302 82.7786 33.4367C82.7786 31.5232 84.1789 30.2146 85.8009 30.2146C87.4241 30.2146 88.8231 31.5232 88.8231 33.4367C88.8231 35.329 87.4241 36.6588 85.8009 36.6588ZM74.0721 28.1199C71.1103 28.1199 68.6964 30.3559 68.6964 33.4355C68.6964 36.4963 71.1103 38.751 74.0721 38.751C77.0352 38.751 79.4492 36.4963 79.4492 33.4355C79.4492 30.3559 77.0352 28.1199 74.0721 28.1199ZM74.0721 36.6588C72.4489 36.6588 71.0499 35.3302 71.0499 33.4367C71.0499 31.5232 72.4502 30.2146 74.0721 30.2146C75.6953 30.2146 77.0943 31.5232 77.0943 33.4367C77.0956 35.329 75.6953 36.6588 74.0721 36.6588ZM60.1221 29.7522V32.0069H65.5595C65.3971 33.2755 64.9715 34.2016 64.3217 34.8453C63.5309 35.6302 62.293 36.4963 60.1221 36.4963C56.7749 36.4963 54.1582 33.8179 54.1582 30.4959C54.1582 27.1738 56.7749 24.4954 60.1221 24.4954C61.9278 24.4954 63.2463 25.2003 64.2197 26.1065L65.8227 24.5154C64.4627 23.2268 62.6582 22.2407 60.1221 22.2407C55.5371 22.2407 51.6825 25.9452 51.6825 30.4959C51.6825 35.0465 55.5371 38.751 60.1221 38.751C62.5965 38.751 64.464 37.9449 65.9235 36.4351C67.4245 34.9453 67.8917 32.8505 67.8917 31.1595C67.8917 30.6371 67.8514 30.1534 67.7695 29.751H60.1221V29.7522ZM117.177 31.5032C116.731 30.3159 115.371 28.1199 112.592 28.1199C109.833 28.1199 107.539 30.2746 107.539 33.4355C107.539 36.4151 109.812 38.751 112.855 38.751C115.309 38.751 116.73 37.2612 117.319 36.3951L115.493 35.1865C114.885 36.0726 114.052 36.6563 112.855 36.6563C111.659 36.6563 110.806 36.1126 110.258 35.0452L117.42 32.1056L117.177 31.5032ZM109.873 33.2755C109.812 31.2208 111.476 30.1747 112.673 30.1747C113.607 30.1747 114.397 30.6383 114.662 31.302L109.873 33.2755ZM104.051 38.4298H106.404V22.8056H104.051V38.4298ZM100.195 29.3085H100.115C99.5872 28.6836 98.5723 28.1199 97.2954 28.1199C94.6169 28.1199 92.1627 30.4559 92.1627 33.4567C92.1627 36.4363 94.6169 38.7523 97.2954 38.7523C98.5735 38.7523 99.5872 38.1886 100.115 37.5449H100.195V38.3098C100.195 40.3433 99.0999 41.4306 97.3357 41.4306C95.8951 41.4306 95.0023 40.4045 94.6371 39.5384L92.5883 40.3845C93.1763 41.7931 94.7378 43.5254 97.3357 43.5254C100.095 43.5254 102.428 41.9143 102.428 37.9874V28.4436H100.197V29.3085H100.195ZM97.4981 36.6588C95.8749 36.6588 94.5162 35.309 94.5162 33.4567C94.5162 31.5832 95.8749 30.2146 97.4981 30.2146C99.0999 30.2146 100.358 31.5832 100.358 33.4567C100.358 35.309 99.0999 36.6588 97.4981 36.6588ZM128.2 22.8056H122.57V38.4298H124.918V32.5106H128.199C130.803 32.5106 133.364 30.6396 133.364 27.6587C133.364 24.6779 130.804 22.8056 128.2 22.8056ZM128.261 30.3359H124.918V24.9804H128.261C130.017 24.9804 131.015 26.4239 131.015 27.6587C131.015 28.8686 130.017 30.3359 128.261 30.3359ZM142.782 28.0924C141.081 28.0924 139.319 28.8361 138.59 30.4846L140.676 31.3482C141.121 30.4846 141.952 30.2022 142.823 30.2022C144.038 30.2022 145.273 30.9258 145.293 32.2119V32.3731C144.868 32.1319 143.956 31.7707 142.843 31.7707C140.595 31.7707 138.306 32.9968 138.306 35.2877C138.306 37.3787 140.149 38.7248 142.214 38.7248C143.794 38.7248 144.665 38.0211 145.211 37.1962H145.292V38.4023H147.561V32.4119C147.562 29.6397 145.475 28.0924 142.782 28.0924ZM142.498 36.655C141.73 36.655 140.655 36.2726 140.655 35.3277C140.655 34.1216 141.993 33.6592 143.148 33.6592C144.179 33.6592 144.666 33.8804 145.293 34.1816C145.111 35.6302 143.855 36.655 142.498 36.655ZM155.825 28.4336L153.131 35.2077H153.05L150.255 28.4336H147.724L151.916 37.9011L149.526 43.1679H151.976L158.437 28.4336H155.825ZM134.661 38.4298H137.01V22.8056H134.661V38.4298Z" fill="#282224"/>
<path d="M59.7117 13.7368C59.7117 14.7841 59.3994 15.6178 58.7735 16.2402C58.0633 16.9801 57.1365 17.35 55.9981 17.35C54.9076 17.35 53.9795 16.9751 53.2177 16.2252C52.4546 15.474 52.073 14.5442 52.073 13.4343C52.073 12.3232 52.4546 11.3933 53.2177 10.6434C53.9795 9.89228 54.9076 9.51733 55.9981 9.51733C56.5396 9.51733 57.0571 9.62232 57.5483 9.83104C58.0406 10.041 58.4348 10.3197 58.7294 10.6684L58.0658 11.3283C57.5659 10.7347 56.8771 10.4385 55.9968 10.4385C55.201 10.4385 54.5134 10.7159 53.9329 11.2708C53.3524 11.8258 53.0628 12.5469 53.0628 13.4331C53.0628 14.3192 53.3524 15.0403 53.9329 15.5953C54.5134 16.1502 55.201 16.4277 55.9968 16.4277C56.8406 16.4277 57.5445 16.1489 58.1074 15.5903C58.4726 15.2266 58.6841 14.7204 58.7408 14.0717H55.9968V13.1706H59.6575C59.6953 13.3668 59.7117 13.5555 59.7117 13.7368Z" fill="#282224"/>
<path d="M65.517 10.6048H62.0767V12.9819H65.1795V13.8831H62.0767V16.2602H65.517V17.1826H61.1058V9.68363H65.517V10.6048Z" fill="#282224"/>
<path d="M69.6107 17.1826H68.6398V10.6048H66.5293V9.68363H71.7212V10.6048H69.6107V17.1826Z" fill="#282224"/>
<path d="M75.4775 17.1826V9.68363H76.4484V17.1826H75.4775Z" fill="#282224"/>
<path d="M80.754 17.1826H79.7831V10.6048H77.6726V9.68363H82.8645V10.6048H80.754V17.1826Z" fill="#282224"/>
<path d="M92.6928 16.214C91.9498 16.9714 91.0268 17.3501 89.9224 17.3501C88.818 17.3501 87.895 16.9714 87.1533 16.214C86.4103 15.4566 86.0401 14.5292 86.0401 13.4331C86.0401 12.337 86.4103 11.4096 87.1533 10.6522C87.895 9.89484 88.818 9.51489 89.9224 9.51489C91.0205 9.51489 91.9423 9.89609 92.6877 10.6572C93.4332 11.4184 93.806 12.3433 93.806 13.4331C93.806 14.5292 93.4345 15.4566 92.6928 16.214ZM87.8698 15.5853C88.4289 16.1478 89.1127 16.4277 89.9224 16.4277C90.7321 16.4277 91.4171 16.1465 91.975 15.5853C92.5341 15.0229 92.8149 14.3055 92.8149 13.4331C92.8149 12.5607 92.5341 11.8433 91.975 11.2809C91.4171 10.7185 90.7321 10.4385 89.9224 10.4385C89.1127 10.4385 88.4289 10.7197 87.8698 11.2809C87.312 11.8433 87.0311 12.5607 87.0311 13.4331C87.0311 14.3055 87.312 15.0229 87.8698 15.5853Z" fill="#282224"/>
<path d="M95.1685 17.1826V9.68363H96.3497L100.022 15.5166H100.063L100.022 14.0718V9.68363H100.993V17.1826H99.9789L96.1369 11.0659H96.0953L96.1369 12.5108V17.1826H95.1685Z" fill="#282224"/>
<g filter="url(#filter0_ii_139_1482)">
<path d="M13.1416 10.3561C12.7752 10.7411 12.5586 11.3385 12.5586 12.1121V39.7534C12.5586 40.5283 12.7752 41.1245 13.1416 41.5094L13.2348 41.5994L28.8358 26.1153V25.9328V25.7503L13.2348 10.2649L13.1416 10.3561Z" fill="url(#paint0_linear_139_1482)"/>
<path d="M34.0353 31.2784L28.8358 26.1154V25.9329V25.7504L34.0366 20.5886L34.1537 20.6549L40.3152 24.1294C42.0744 25.1218 42.0744 26.7453 40.3152 27.7389L34.1537 31.2134L34.0353 31.2784Z" fill="url(#paint1_linear_139_1482)"/>
<g filter="url(#filter1_i_139_1482)">
<path d="M34.1536 31.2121L28.8345 25.9329L13.1416 41.5095C13.7209 42.1194 14.6792 42.1944 15.7583 41.587L34.1536 31.2121Z" fill="url(#paint2_linear_139_1482)"/>
</g>
<path d="M34.1536 20.6535L15.7583 10.2799C14.6792 9.67123 13.7209 9.74747 13.1416 10.3574L28.8357 25.934L34.1536 20.6535Z" fill="url(#paint3_linear_139_1482)"/>
</g>
<rect x="0.5" y="1.43481" width="169" height="48.9933" rx="4.5" stroke="#A6A6A6"/>
<defs>
<filter id="filter0_ii_139_1482" x="12.5586" y="9.85986" width="29.076" height="32.1467" filterUnits="userSpaceOnUse" color-interpolation-filters="sRGB">
<feFlood flood-opacity="0" result="BackgroundImageFix"/>
<feBlend mode="normal" in="SourceGraphic" in2="BackgroundImageFix" result="shape"/>
<feColorMatrix in="SourceAlpha" type="matrix" values="0 0 0 0 0 0 0 0 0 0 0 0 0 0 0 0 0 0 127 0" result="hardAlpha"/>
<feOffset dy="-0.15"/>
<feComposite in2="hardAlpha" operator="arithmetic" k2="-1" k3="1"/>
<feColorMatrix type="matrix" values="0 0 0 0 0 0 0 0 0 0 0 0 0 0 0 0 0 0 0.12 0"/>
<feBlend mode="normal" in2="shape" result="effect1_innerShadow_139_1482"/>
<feColorMatrix in="SourceAlpha" type="matrix" values="0 0 0 0 0 0 0 0 0 0 0 0 0 0 0 0 0 0 127 0" result="hardAlpha"/>
<feOffset dy="0.15"/>
<feComposite in2="hardAlpha" operator="arithmetic" k2="-1" k3="1"/>
<feColorMatrix type="matrix" values="0 0 0 0 1 0 0 0 0 1 0 0 0 0 1 0 0 0 0.25 0"/>
<feBlend mode="normal" in2="effect1_innerShadow_139_1482" result="effect2_innerShadow_139_1482"/>
</filter>
<filter id="filter1_i_139_1482" x="13.1416" y="25.9329" width="21.012" height="16.0737" filterUnits="userSpaceOnUse" color-interpolation-filters="sRGB">
<feFlood flood-opacity="0" result="BackgroundImageFix"/>
<feBlend mode="normal" in="SourceGraphic" in2="BackgroundImageFix" result="shape"/>
<feColorMatrix in="SourceAlpha" type="matrix" values="0 0 0 0 0 0 0 0 0 0 0 0 0 0 0 0 0 0 127 0" result="hardAlpha"/>
<feOffset dy="-0.15"/>
<feComposite in2="hardAlpha" operator="arithmetic" k2="-1" k3="1"/>
<feColorMatrix type="matrix" values="0 0 0 0 0 0 0 0 0 0 0 0 0 0 0 0 0 0 0.08 0"/>
<feBlend mode="normal" in2="shape" result="effect1_innerShadow_139_1482"/>
</filter>
<linearGradient id="paint0_linear_139_1482" x1="27.4529" y1="11.8197" x2="6.47878" y2="32.952" gradientUnits="userSpaceOnUse">
<stop stop-color="#00A0FF"/>
<stop offset="0.0066" stop-color="#00A1FF"/>
<stop offset="0.2601" stop-color="#00BEFF"/>
<stop offset="0.5122" stop-color="#00D2FF"/>
<stop offset="0.7604" stop-color="#00DFFF"/>
<stop offset="1" stop-color="#00E3FF"/>
</linearGradient>
<linearGradient id="paint1_linear_139_1482" x1="42.6052" y1="25.9329" x2="12.1363" y2="25.9329" gradientUnits="userSpaceOnUse">
<stop stop-color="#FFE000"/>
<stop offset="0.4087" stop-color="#FFBD00"/>
<stop offset="0.7754" stop-color="#FFA500"/>
<stop offset="1" stop-color="#FF9C00"/>
</linearGradient>
<linearGradient id="paint2_linear_139_1482" x1="31.265" y1="28.7999" x2="2.8215" y2="57.4579" gradientUnits="userSpaceOnUse">
<stop stop-color="#FF3A44"/>
<stop offset="1" stop-color="#C31162"/>
</linearGradient>
<linearGradient id="paint3_linear_139_1482" x1="9.18929" y1="1.15588" x2="21.8901" y2="13.9525" gradientUnits="userSpaceOnUse">
<stop stop-color="#32A071"/>
<stop offset="0.0685" stop-color="#2DA771"/>
<stop offset="0.4762" stop-color="#15CF74"/>
<stop offset="0.8009" stop-color="#06E775"/>
<stop offset="1" stop-color="#00F076"/>
</linearGradient>
</defs>
</svg>
